<?xml version="1.0" encoding="UTF-8" standalone="yes"?><svg xmlns="http://www.w3.org/2000/svg" xmlns:xlink="http://www.w3.org/1999/xlink" height="415px" style="width:549px;height:415px;" version="1.1" viewBox="0 0 549 415" width="549px"><defs><filter height="300%" id="f1" width="300%" x="-1" y="-1"><feGaussianBlur result="blurOut" stdDeviation="2.0"/><feColorMatrix in="blurOut" result="blurOut2" type="matrix" values="0 0 0 0 0 0 0 0 0 0 0 0 0 0 0 0 0 0 .4 0"/><feOffset dx="4.0" dy="4.0" in="blurOut2" result="blurOut3"/><feBlend in="SourceGraphic" in2="blurOut3" mode="normal"/></filter></defs><g><rect fill="#FFFFFF" filter="url(#f1)" height="143.4063" style="stroke: #A80036; stroke-width: 1.0;" width="10" x="26.5" y="49.6094"/><rect fill="#FFFFFF" filter="url(#f1)" height="9.3516" style="stroke: #A80036; stroke-width: 1.0;" width="10" x="26.5" y="357.4219"/><rect fill="#FFFFFF" filter="url(#f1)" height="30.3516" style="stroke: #A80036; stroke-width: 1.0;" width="10" x="340.5" y="71.6094"/><rect fill="#FFFFFF" filter="url(#f1)" height="30.3516" style="stroke: #A80036; stroke-width: 1.0;" width="10" x="407" y="132.3125"/><rect fill="#FFFFFF" filter="url(#f1)" height="30.3516" style="stroke: #A80036; stroke-width: 1.0;" width="10" x="407" y="193.0156"/><rect fill="#FFFFFF" filter="url(#f1)" height="103.7031" style="stroke: #A80036; stroke-width: 1.0;" width="10" x="407" y="253.7188"/><rect fill="#FFFFFF" filter="url(#f1)" height="28" style="stroke: #A80036; stroke-width: 1.0;" width="10" x="412" y="292.0703"/><rect fill="#FFFFFF" filter="url(#f1)" height="30.3516" style="stroke: #A80036; stroke-width: 1.0;" width="10" x="521" y="223.3672"/><line style="stroke: #A80036; stroke-width: 1.0; stroke-dasharray: 5.0,5.0;" x1="31" x2="31" y1="39.6094" y2="375.7734"/><line style="stroke: #A80036; stroke-width: 1.0; stroke-dasharray: 5.0,5.0;" x1="345.5" x2="345.5" y1="39.6094" y2="375.7734"/><line style="stroke: #A80036; stroke-width: 1.0; stroke-dasharray: 5.0,5.0;" x1="411.5" x2="411.5" y1="39.6094" y2="375.7734"/><line style="stroke: #A80036; stroke-width: 1.0; stroke-dasharray: 5.0,5.0;" x1="525.5" x2="525.5" y1="39.6094" y2="375.7734"/><rect fill="#FEFECE" filter="url(#f1)" height="31.6094" style="stroke: #A80036; stroke-width: 1.5;" width="43" x="8" y="3"/><text fill="#000000" font-family="sans-serif" font-size="14" lengthAdjust="spacingAndGlyphs" textLength="29" x="15" y="24.5332">User</text><rect fill="#FEFECE" filter="url(#f1)" height="31.6094" style="stroke: #A80036; stroke-width: 1.5;" width="43" x="8" y="374.7734"/><text fill="#000000" font-family="sans-serif" font-size="14" lengthAdjust="spacingAndGlyphs" textLength="29" x="15" y="396.3066">User</text><rect fill="#FEFECE" filter="url(#f1)" height="31.6094" style="stroke: #A80036; stroke-width: 1.5;" width="52" x="317.5" y="3"/><text fill="#000000" font-family="sans-serif" font-size="14" lengthAdjust="spacingAndGlyphs" textLength="38" x="324.5" y="24.5332">Model</text><rect fill="#FEFECE" filter="url(#f1)" height="31.6094" style="stroke: #A80036; stroke-width: 1.5;" width="52" x="317.5" y="374.7734"/><text fill="#000000" font-family="sans-serif" font-size="14" lengthAdjust="spacingAndGlyphs" textLength="38" x="324.5" y="396.3066">Model</text><rect fill="#FEFECE" filter="url(#f1)" height="31.6094" style="stroke: #A80036; stroke-width: 1.5;" width="53" x="383.5" y="3"/><text fill="#000000" font-family="sans-serif" font-size="14" lengthAdjust="spacingAndGlyphs" textLength="39" x="390.5" y="24.5332">Query</text><rect fill="#FEFECE" filter="url(#f1)" height="31.6094" style="stroke: #A80036; stroke-width: 1.5;" width="53" x="383.5" y="374.7734"/><text fill="#000000" font-family="sans-serif" font-size="14" lengthAdjust="spacingAndGlyphs" textLength="39" x="390.5" y="396.3066">Query</text><rect fill="#FEFECE" filter="url(#f1)" height="31.6094" style="stroke: #A80036; stroke-width: 1.5;" width="33" x="507.5" y="3"/><text fill="#000000" font-family="sans-serif" font-size="14" lengthAdjust="spacingAndGlyphs" textLength="19" x="514.5" y="24.5332">DB</text><rect fill="#FEFECE" filter="url(#f1)" height="31.6094" style="stroke: #A80036; stroke-width: 1.5;" width="33" x="507.5" y="374.7734"/><text fill="#000000" font-family="sans-serif" font-size="14" lengthAdjust="spacingAndGlyphs" textLength="19" x="514.5" y="396.3066">DB</text><rect fill="#FFFFFF" filter="url(#f1)" height="143.4063" style="stroke: #A80036; stroke-width: 1.0;" width="10" x="26.5" y="49.6094"/><rect fill="#FFFFFF" filter="url(#f1)" height="9.3516" style="stroke: #A80036; stroke-width: 1.0;" width="10" x="26.5" y="357.4219"/><rect fill="#FFFFFF" filter="url(#f1)" height="30.3516" style="stroke: #A80036; stroke-width: 1.0;" width="10" x="340.5" y="71.6094"/><rect fill="#FFFFFF" filter="url(#f1)" height="30.3516" style="stroke: #A80036; stroke-width: 1.0;" width="10" x="407" y="132.3125"/><rect fill="#FFFFFF" filter="url(#f1)" height="30.3516" style="stroke: #A80036; stroke-width: 1.0;" width="10" x="407" y="193.0156"/><rect fill="#FFFFFF" filter="url(#f1)" height="103.7031" style="stroke: #A80036; stroke-width: 1.0;" width="10" x="407" y="253.7188"/><rect fill="#FFFFFF" filter="url(#f1)" height="28" style="stroke: #A80036; stroke-width: 1.0;" width="10" x="412" y="292.0703"/><rect fill="#FFFFFF" filter="url(#f1)" height="30.3516" style="stroke: #A80036; stroke-width: 1.0;" width="10" x="521" y="223.3672"/><polygon fill="#A80036" points="328.5,67.6094,338.5,71.6094,328.5,75.6094,332.5,71.6094" style="stroke: #A80036; stroke-width: 1.0;"/><line style="stroke: #A80036; stroke-width: 1.0;" x1="36.5" x2="334.5" y1="71.6094" y2="71.6094"/><text fill="#000000" font-family="sans-serif" font-size="13" font-weight="bold" lengthAdjust="spacingAndGlyphs" textLength="7" x="43.5" y="67.1045">1</text><text fill="#000000" font-family="sans-serif" font-size="13" lengthAdjust="spacingAndGlyphs" textLength="28" x="54.5" y="67.1045">find()</text><polygon fill="#A80036" points="47.5,97.9609,37.5,101.9609,47.5,105.9609,43.5,101.9609" style="stroke: #A80036; stroke-width: 1.0;"/><line style="stroke: #A80036; stroke-width: 1.0; stroke-dasharray: 2.0,2.0;" x1="41.5" x2="344.5" y1="101.9609" y2="101.9609"/><text fill="#000000" font-family="sans-serif" font-size="13" font-weight="bold" lengthAdjust="spacingAndGlyphs" textLength="7" x="53.5" y="97.4561">2</text><text fill="#000000" font-family="sans-serif" font-size="13" lengthAdjust="spacingAndGlyphs" textLength="269" x="64.5" y="97.4561">new Query(knex(tableName).whereNull().first())</text><polygon fill="#A80036" points="395,128.3125,405,132.3125,395,136.3125,399,132.3125" style="stroke: #A80036; stroke-width: 1.0;"/><line style="stroke: #A80036; stroke-width: 1.0;" x1="36.5" x2="401" y1="132.3125" y2="132.3125"/><text fill="#000000" font-family="sans-serif" font-size="13" font-weight="bold" lengthAdjust="spacingAndGlyphs" textLength="7" x="43.5" y="127.8076">3</text><text fill="#000000" font-family="sans-serif" font-size="13" lengthAdjust="spacingAndGlyphs" textLength="71" x="54.5" y="127.8076">where('id', 1)</text><polygon fill="#A80036" points="47.5,158.6641,37.5,162.6641,47.5,166.6641,43.5,162.6641" style="stroke: #A80036; stroke-width: 1.0;"/><line style="stroke: #A80036; stroke-width: 1.0; stroke-dasharray: 2.0,2.0;" x1="41.5" x2="411" y1="162.6641" y2="162.6641"/><text fill="#000000" font-family="sans-serif" font-size="13" font-weight="bold" lengthAdjust="spacingAndGlyphs" textLength="7" x="53.5" y="158.1592">4</text><text fill="#000000" font-family="sans-serif" font-size="13" lengthAdjust="spacingAndGlyphs" textLength="177" x="64.5" y="158.1592">new Query(query.where('id', 1))</text><line style="stroke: #A80036; stroke-width: 1.0;" x1="405" x2="395" y1="193.0156" y2="189.0156"/><line style="stroke: #A80036; stroke-width: 1.0;" x1="405" x2="395" y1="193.0156" y2="197.0156"/><line style="stroke: #A80036; stroke-width: 1.0;" x1="31.5" x2="406" y1="193.0156" y2="193.0156"/><text fill="#000000" font-family="sans-serif" font-size="13" font-weight="bold" lengthAdjust="spacingAndGlyphs" textLength="7" x="38.5" y="188.5107">5</text><text fill="#000000" font-family="sans-serif" font-size="13" lengthAdjust="spacingAndGlyphs" textLength="25" x="49.5" y="188.5107">then</text><line style="stroke: #A80036; stroke-width: 1.0;" x1="519" x2="509" y1="223.3672" y2="219.3672"/><line style="stroke: #A80036; stroke-width: 1.0;" x1="519" x2="509" y1="223.3672" y2="227.3672"/><line style="stroke: #A80036; stroke-width: 1.0;" x1="412" x2="520" y1="223.3672" y2="223.3672"/><text fill="#000000" font-family="sans-serif" font-size="13" font-weight="bold" lengthAdjust="spacingAndGlyphs" textLength="7" x="419" y="218.8623">6</text><text fill="#000000" font-family="sans-serif" font-size="13" lengthAdjust="spacingAndGlyphs" textLength="46" x="430" y="218.8623">QUERY</text><polygon fill="#A80036" points="428,249.7188,418,253.7188,428,257.7188,424,253.7188" style="stroke: #A80036; stroke-width: 1.0;"/><line style="stroke: #A80036; stroke-width: 1.0; stroke-dasharray: 2.0,2.0;" x1="422" x2="525" y1="253.7188" y2="253.7188"/><text fill="#000000" font-family="sans-serif" font-size="13" font-weight="bold" lengthAdjust="spacingAndGlyphs" textLength="7" x="434" y="249.2139">7</text><text fill="#000000" font-family="sans-serif" font-size="13" lengthAdjust="spacingAndGlyphs" textLength="50" x="445" y="249.2139">RESULT</text><line style="stroke: #A80036; stroke-width: 1.0;" x1="422" x2="464" y1="284.4219" y2="284.4219"/><line style="stroke: #A80036; stroke-width: 1.0;" x1="464" x2="464" y1="284.4219" y2="297.4219"/><line style="stroke: #A80036; stroke-width: 1.0;" x1="423" x2="464" y1="297.4219" y2="297.4219"/><polygon fill="#A80036" points="433,293.4219,423,297.4219,433,301.4219,429,297.4219" style="stroke: #A80036; stroke-width: 1.0;"/><text fill="#000000" font-family="sans-serif" font-size="13" font-weight="bold" lengthAdjust="spacingAndGlyphs" textLength="7" x="429" y="279.5654">8</text><text fill="#000000" font-family="sans-serif" font-size="13" lengthAdjust="spacingAndGlyphs" textLength="79" x="440" y="279.5654">emit('fetched')</text><polygon fill="#A80036" points="47.5,353.4219,37.5,357.4219,47.5,361.4219,43.5,357.4219" style="stroke: #A80036; stroke-width: 1.0;"/><line style="stroke: #A80036; stroke-width: 1.0; stroke-dasharray: 2.0,2.0;" x1="41.5" x2="411" y1="357.4219" y2="357.4219"/><text fill="#000000" font-family="sans-serif" font-size="13" font-weight="bold" lengthAdjust="spacingAndGlyphs" textLength="7" x="53.5" y="352.917">9</text><text fill="#000000" font-family="sans-serif" font-size="13" lengthAdjust="spacingAndGlyphs" textLength="105" x="64.5" y="352.917">resolve(correction)</text></g></svg>