<?xml version="1.0" encoding="UTF-8" standalone="yes"?><svg xmlns="http://www.w3.org/2000/svg" xmlns:xlink="http://www.w3.org/1999/xlink" height="452px" style="width:688px;height:452px;" version="1.1" viewBox="0 0 688 452" width="688px"><defs><filter height="300%" id="f1" width="300%" x="-1" y="-1"><feGaussianBlur result="blurOut" stdDeviation="2.0"/><feColorMatrix in="blurOut" result="blurOut2" type="matrix" values="0 0 0 0 0 0 0 0 0 0 0 0 0 0 0 0 0 0 .4 0"/><feOffset dx="4.0" dy="4.0" in="blurOut2" result="blurOut3"/><feBlend in="SourceGraphic" in2="blurOut3" mode="normal"/></filter></defs><g><rect fill="#FEFECE" filter="url(#f1)" height="144.8516" style="stroke: #A80036; stroke-width: 1.5;" width="118" x="322.5" y="8"/><ellipse cx="361.8" cy="24" fill="#ADD1B2" rx="11" ry="11" style="stroke: #A80036; stroke-width: 1.0;"/><path d="M364.5031,29.4375 Q363.5813,30.3594 361.3156,30.3594 Q360.05,30.3594 359.1281,29.4375 Q357.4719,27.7813 357.4719,24.25 Q357.4719,20.1406 359.2531,18.3438 Q360.1906,17.4219 361.3781,17.4219 Q363.6438,17.4219 364.3781,18.1406 Q365.7688,19.5469 365.7063,21.9375 L363.2375,21.9375 Q363.175,19.8125 362.4406,19.0781 Q362.05,18.6719 361.3781,18.6719 Q361.3781,18.6719 361.3156,19.1406 Q359.9875,20.4688 359.9875,24.125 Q359.9875,27.3125 361.1281,28.4375 Q361.6594,28.9688 361.6594,28.9688 Q361.9094,28.9688 362.4406,28.4375 Q363.1125,27.7813 363.175,25.3906 L365.7688,25.3906 Q365.5656,28.375 364.5031,29.4375 Z "/><text fill="#000000" font-family="sans-serif" font-size="12" lengthAdjust="spacingAndGlyphs" textLength="32" x="381.2" y="28.9102">Query</text><line style="stroke: #A80036; stroke-width: 1.5;" x1="323.5" x2="439.5" y1="40" y2="40"/><line style="stroke: #A80036; stroke-width: 1.5;" x1="323.5" x2="439.5" y1="48" y2="48"/><ellipse cx="333.5" cy="60.418" fill="#84BE84" rx="3" ry="3" style="stroke: #038048; stroke-width: 1.0;"/><text fill="#000000" font-family="sans-serif" font-size="11" lengthAdjust="spacingAndGlyphs" textLength="92" x="342.5" y="63.4189">constructor(query)</text><ellipse cx="333.5" cy="74.2539" fill="#84BE84" rx="3" ry="3" style="stroke: #038048; stroke-width: 1.0;"/><text fill="#000000" font-family="sans-serif" font-size="11" lengthAdjust="spacingAndGlyphs" textLength="62" x="342.5" y="77.2549">find(): Query</text><ellipse cx="333.5" cy="88.0898" fill="#84BE84" rx="3" ry="3" style="stroke: #038048; stroke-width: 1.0;"/><text fill="#000000" font-family="sans-serif" font-size="11" lengthAdjust="spacingAndGlyphs" textLength="74" x="342.5" y="91.0908">findAll(): Query</text><ellipse cx="333.5" cy="101.9258" fill="#84BE84" rx="3" ry="3" style="stroke: #038048; stroke-width: 1.0;"/><text fill="#000000" font-family="sans-serif" font-size="11" lengthAdjust="spacingAndGlyphs" textLength="73" x="342.5" y="104.9268">select(): Query</text><ellipse cx="333.5" cy="115.7617" fill="#84BE84" rx="3" ry="3" style="stroke: #038048; stroke-width: 1.0;"/><text fill="#000000" font-family="sans-serif" font-size="11" lengthAdjust="spacingAndGlyphs" textLength="76" x="342.5" y="118.7627">where(): Query</text><ellipse cx="333.5" cy="129.5977" fill="#84BE84" rx="3" ry="3" style="stroke: #038048; stroke-width: 1.0;"/><text fill="#000000" font-family="sans-serif" font-size="11" lengthAdjust="spacingAndGlyphs" textLength="73" x="342.5" y="132.5986">then(): Promise</text><ellipse cx="333.5" cy="143.4336" fill="#84BE84" rx="3" ry="3" style="stroke: #038048; stroke-width: 1.0;"/><text fill="#000000" font-family="sans-serif" font-size="11" lengthAdjust="spacingAndGlyphs" textLength="79" x="342.5" y="146.4346">catch(): Promise</text><rect fill="#FEFECE" filter="url(#f1)" height="61.8359" style="stroke: #A80036; stroke-width: 1.5;" width="249" x="6" y="245"/><ellipse cx="110.75" cy="261" fill="#ADD1B2" rx="11" ry="11" style="stroke: #A80036; stroke-width: 1.0;"/><path d="M113.4531,266.4375 Q112.5313,267.3594 110.2656,267.3594 Q109,267.3594 108.0781,266.4375 Q106.4219,264.7813 106.4219,261.25 Q106.4219,257.1406 108.2031,255.3438 Q109.1406,254.4219 110.3281,254.4219 Q112.5938,254.4219 113.3281,255.1406 Q114.7188,256.5469 114.6563,258.9375 L112.1875,258.9375 Q112.125,256.8125 111.3906,256.0781 Q111,255.6719 110.3281,255.6719 Q110.3281,255.6719 110.2656,256.1406 Q108.9375,257.4688 108.9375,261.125 Q108.9375,264.3125 110.0781,265.4375 Q110.6094,265.9688 110.6094,265.9688 Q110.8594,265.9688 111.3906,265.4375 Q112.0625,264.7813 112.125,262.3906 L114.7188,262.3906 Q114.5156,265.375 113.4531,266.4375 Z "/><text fill="#000000" font-family="sans-serif" font-size="12" lengthAdjust="spacingAndGlyphs" textLength="31" x="131.25" y="265.9102">Table</text><line style="stroke: #A80036; stroke-width: 1.5;" x1="7" x2="254" y1="277" y2="277"/><line style="stroke: #A80036; stroke-width: 1.5;" x1="7" x2="254" y1="285" y2="285"/><text fill="#000000" font-family="sans-serif" font-size="11" lengthAdjust="spacingAndGlyphs" textLength="237" x="12" y="300.4189">constructor(tableName: String, schema: Schema)</text><rect fill="#FEFECE" filter="url(#f1)" height="89.5078" style="stroke: #A80036; stroke-width: 1.5;" width="182" x="290.5" y="231"/><ellipse cx="360.75" cy="247" fill="#ADD1B2" rx="11" ry="11" style="stroke: #A80036; stroke-width: 1.0;"/><path d="M363.4531,252.4375 Q362.5313,253.3594 360.2656,253.3594 Q359,253.3594 358.0781,252.4375 Q356.4219,250.7813 356.4219,247.25 Q356.4219,243.1406 358.2031,241.3438 Q359.1406,240.4219 360.3281,240.4219 Q362.5938,240.4219 363.3281,241.1406 Q364.7188,242.5469 364.6563,244.9375 L362.1875,244.9375 Q362.125,242.8125 361.3906,242.0781 Q361,241.6719 360.3281,241.6719 Q360.3281,241.6719 360.2656,242.1406 Q358.9375,243.4688 358.9375,247.125 Q358.9375,250.3125 360.0781,251.4375 Q360.6094,251.9688 360.6094,251.9688 Q360.8594,251.9688 361.3906,251.4375 Q362.0625,250.7813 362.125,248.3906 L364.7188,248.3906 Q364.5156,251.375 363.4531,252.4375 Z "/><text fill="#000000" font-family="sans-serif" font-size="12" lengthAdjust="spacingAndGlyphs" textLength="33" x="381.25" y="251.9102">Model</text><line style="stroke: #A80036; stroke-width: 1.5;" x1="291.5" x2="471.5" y1="263" y2="263"/><line style="stroke: #A80036; stroke-width: 1.5;" x1="291.5" x2="471.5" y1="271" y2="271"/><polygon fill="#FFFF44" points="301.5,278.418,305.5,282.418,301.5,286.418,297.5,282.418" style="stroke: #B38D22; stroke-width: 1.0;"/><text fill="#000000" font-family="sans-serif" font-size="11" lengthAdjust="spacingAndGlyphs" textLength="156" x="310.5" y="286.4189">belongsTo(model: Model): Query</text><polygon fill="#FFFF44" points="301.5,292.2539,305.5,296.2539,301.5,300.2539,297.5,296.2539" style="stroke: #B38D22; stroke-width: 1.0;"/><text fill="#000000" font-family="sans-serif" font-size="11" lengthAdjust="spacingAndGlyphs" textLength="150" x="310.5" y="300.2549">hasMany(model: Model): Query</text><ellipse cx="301.5" cy="311.0898" fill="#84BE84" rx="3" ry="3" style="stroke: #038048; stroke-width: 1.0;"/><text fill="#000000" font-family="sans-serif" font-size="11" lengthAdjust="spacingAndGlyphs" textLength="81" x="310.5" y="314.0908">toJSON(): Object</text><rect fill="#FEFECE" filter="url(#f1)" height="61.8359" style="stroke: #A80036; stroke-width: 1.5;" width="107" x="489" y="382"/><ellipse cx="513" cy="398" fill="#ADD1B2" rx="11" ry="11" style="stroke: #A80036; stroke-width: 1.0;"/><path d="M515.7031,403.4375 Q514.7813,404.3594 512.5156,404.3594 Q511.25,404.3594 510.3281,403.4375 Q508.6719,401.7813 508.6719,398.25 Q508.6719,394.1406 510.4531,392.3438 Q511.3906,391.4219 512.5781,391.4219 Q514.8438,391.4219 515.5781,392.1406 Q516.9688,393.5469 516.9063,395.9375 L514.4375,395.9375 Q514.375,393.8125 513.6406,393.0781 Q513.25,392.6719 512.5781,392.6719 Q512.5781,392.6719 512.5156,393.1406 Q511.1875,394.4688 511.1875,398.125 Q511.1875,401.3125 512.3281,402.4375 Q512.8594,402.9688 512.8594,402.9688 Q513.1094,402.9688 513.6406,402.4375 Q514.3125,401.7813 514.375,399.3906 L516.9688,399.3906 Q516.7656,402.375 515.7031,403.4375 Z "/><text fill="#000000" font-family="sans-serif" font-size="12" lengthAdjust="spacingAndGlyphs" textLength="55" x="529" y="402.9102">Collection</text><line style="stroke: #A80036; stroke-width: 1.5;" x1="490" x2="595" y1="414" y2="414"/><line style="stroke: #A80036; stroke-width: 1.5;" x1="490" x2="595" y1="422" y2="422"/><ellipse cx="500" cy="434.418" fill="#84BE84" rx="3" ry="3" style="stroke: #038048; stroke-width: 1.0;"/><text fill="#000000" font-family="sans-serif" font-size="11" lengthAdjust="spacingAndGlyphs" textLength="81" x="509" y="437.4189">toJSON(): Object</text><rect fill="#FEFECE" filter="url(#f1)" height="48" style="stroke: #A80036; stroke-width: 1.5;" width="59" x="620" y="252"/><ellipse cx="635" cy="268" fill="#ADD1B2" rx="11" ry="11" style="stroke: #A80036; stroke-width: 1.0;"/><path d="M637.7031,273.4375 Q636.7813,274.3594 634.5156,274.3594 Q633.25,274.3594 632.3281,273.4375 Q630.6719,271.7813 630.6719,268.25 Q630.6719,264.1406 632.4531,262.3438 Q633.3906,261.4219 634.5781,261.4219 Q636.8438,261.4219 637.5781,262.1406 Q638.9688,263.5469 638.9063,265.9375 L636.4375,265.9375 Q636.375,263.8125 635.6406,263.0781 Q635.25,262.6719 634.5781,262.6719 Q634.5781,262.6719 634.5156,263.1406 Q633.1875,264.4688 633.1875,268.125 Q633.1875,271.3125 634.3281,272.4375 Q634.8594,272.9688 634.8594,272.9688 Q635.1094,272.9688 635.6406,272.4375 Q636.3125,271.7813 636.375,269.3906 L638.9688,269.3906 Q638.7656,272.375 637.7031,273.4375 Z "/><text fill="#000000" font-family="sans-serif" font-size="12" lengthAdjust="spacingAndGlyphs" textLength="27" x="649" y="272.9102">Array</text><line style="stroke: #A80036; stroke-width: 1.5;" x1="621" x2="678" y1="284" y2="284"/><line style="stroke: #A80036; stroke-width: 1.5;" x1="621" x2="678" y1="292" y2="292"/><path d="M306.304,139.47 C261.383,174.1 206.157,216.675 169.727,244.759 " fill="none" style="stroke: #A80036; stroke-width: 1.0;"/><polygon fill="none" points="302.221,133.779,322.334,127.112,310.769,144.867,302.221,133.779" style="stroke: #A80036; stroke-width: 1.0;"/><path d="M618.51,316.099 C602.006,336.922 582.007,362.1544 566.666,381.51 " fill="none" style="stroke: #A80036; stroke-width: 1.0;"/><polygon fill="none" points="613.197,311.533,631.106,300.207,624.169,320.229,613.197,311.533" style="stroke: #A80036; stroke-width: 1.0;"/><path d="M381.5,153.002 C381.5,177.122 381.5,203.493 381.5,225.526 " fill="none" style="stroke: #A80036; stroke-width: 1.0;"/><polygon fill="#A80036" points="381.5,230.738,385.5,221.738,381.5,225.738,377.5,221.738,381.5,230.738" style="stroke: #A80036; stroke-width: 1.0;"/><text fill="#000000" font-family="sans-serif" font-size="13" lengthAdjust="spacingAndGlyphs" textLength="40" x="382.5" y="197.4951">resolve</text><path d="M440.701,151.99 C458.626,175.933 477.093,203.588 490.5,231 C513.912,278.869 528.59,339.151 536.166,376.6373 " fill="none" style="stroke: #A80036; stroke-width: 1.0;"/><polygon fill="#A80036" points="537.233,381.9985,539.3997,372.3909,536.2572,377.0946,531.5535,373.9522,537.233,381.9985" style="stroke: #A80036; stroke-width: 1.0;"/><text fill="#000000" font-family="sans-serif" font-size="13" lengthAdjust="spacingAndGlyphs" textLength="40" x="523.5" y="281.4951">resolve</text><path d="M434.217,321.204 C454.273,338.021 476.952,357.0374 496.354,373.3057 " fill="none" style="stroke: #A80036; stroke-width: 1.0;"/><polygon fill="#A80036" points="506.462,381.7822,504.4345,374.862,497.2668,374.0719,499.2943,380.9921,506.462,381.7822" style="stroke: #A80036; stroke-width: 1.0;"/></g></svg>